<?xml version="1.0" standalone="no"?>
<!DOCTYPE svg PUBLIC "-//W3C//DTD SVG 20010904//EN"
 "http://www.w3.org/TR/2001/REC-SVG-20010904/DTD/svg10.dtd">
<svg version="1.0" xmlns="http://www.w3.org/2000/svg"
 width="1200.000000pt" height="800.000000pt" viewBox="0 0 1200.000000 800.000000"
 preserveAspectRatio="xMidYMid meet">

<g transform="translate(0.000000,800.000000) scale(0.100000,-0.100000)"
fill="#000000" stroke="none">
<path d="M5670 7111 c-6 -12 -10 -38 -8 -58 3 -33 5 -35 18 -22 38 39 69 50
124 48 65 -3 73 1 46 26 -14 13 -42 19 -94 23 -68 4 -75 3 -86 -17z"/>
<path d="M5600 7095 c-3 -5 -5 -30 -5 -55 0 -41 -3 -47 -38 -68 -44 -27 -72
-75 -59 -99 8 -13 11 -10 17 16 11 51 87 88 119 56 23 -24 20 -33 -18 -49 -42
-17 -76 -46 -76 -64 0 -19 40 -73 49 -67 5 2 12 19 16 37 6 29 8 30 14 13 7
-17 9 -16 15 12 4 18 11 35 16 38 5 3 55 10 112 15 162 17 327 -19 348 -75 6
-15 10 -58 10 -96 0 -39 4 -68 9 -65 4 3 6 16 4 29 -4 19 3 28 31 45 20 12 39
29 43 38 9 23 -60 89 -116 110 -60 22 -128 61 -169 96 l-33 28 -44 -25 c-38
-23 -53 -26 -121 -23 -69 3 -78 6 -93 28 -9 13 -18 49 -21 80 -3 30 -7 51 -10
45z m320 -160 l23 -25 -35 0 c-20 0 -44 3 -53 6 -14 6 -14 8 2 25 24 24 35 23
63 -6z m256 -202 c-10 -10 -19 5 -10 18 6 11 8 11 12 0 2 -7 1 -15 -2 -18z"/>
<path d="M5948 7094 c-5 -4 -8 -15 -8 -23 0 -13 10 -17 43 -17 23 0 54 -3 70
-8 22 -7 27 -5 27 8 0 20 10 20 38 0 25 -17 29 -7 8 21 -10 14 -30 19 -92 23
-43 2 -82 1 -86 -4z"/>
<path d="M5828 7028 c-15 -15 -23 -28 -19 -28 9 0 56 49 50 53 -2 1 -16 -10
-31 -25z"/>
<path d="M4801 7024 c0 -11 3 -14 6 -6 3 7 2 16 -1 19 -3 4 -6 -2 -5 -13z"/>
<path d="M6180 7013 c0 -37 -40 -91 -72 -99 -16 -3 -28 -10 -28 -16 0 -6 7 -7
18 -3 47 21 69 17 105 -18 25 -23 37 -43 37 -61 0 -17 4 -25 11 -20 7 4 8 19
5 38 -10 46 -12 135 -3 129 16 -10 5 10 -25 42 -38 42 -48 44 -48 8z"/>
<path d="M6108 7003 c-16 -8 -28 -21 -28 -29 0 -8 -10 -14 -22 -15 -13 0 -17
-3 -10 -6 19 -8 71 17 83 39 14 26 10 27 -23 11z"/>
<path d="M4812 6980 c0 -14 2 -19 5 -12 2 6 2 18 0 25 -3 6 -5 1 -5 -13z"/>
<path d="M5814 6974 c-18 -14 -18 -15 4 -4 12 6 22 13 22 15 0 8 -5 6 -26 -11z"/>
<path d="M5977 6939 c7 -7 15 -10 18 -7 3 3 -2 9 -12 12 -14 6 -15 5 -6 -5z"/>
<path d="M5796 6732 c-2 -4 -1 -14 4 -22 7 -11 12 -12 21 -3 6 6 8 16 5 22 -8
13 -23 14 -30 3z"/>
<path d="M5915 6711 c-3 -5 -1 -12 5 -16 12 -7 30 2 30 16 0 12 -27 12 -35 0z"/>
<path d="M5787 6490 c16 -17 108 -26 117 -11 5 7 -7 11 -36 11 -24 0 -54 3
-68 6 -20 5 -23 4 -13 -6z"/>
<path d="M5070 6323 c0 -79 -1 -81 -39 -124 -38 -43 -39 -44 -115 -47 -87 -5
-126 2 -126 23 0 7 -16 31 -36 52 -20 21 -45 58 -56 82 l-20 43 -14 -27 c-18
-36 -18 -85 1 -112 22 -32 33 -180 36 -478 1 -143 6 -272 12 -287 12 -36 78
-95 136 -121 36 -17 66 -22 136 -22 81 0 97 3 157 32 l67 32 -6 -200 c-5 -166
-4 -200 8 -197 36 8 66 55 109 173 18 50 42 110 53 135 11 25 23 63 26 84 5
32 14 45 51 71 86 61 228 265 270 390 24 70 39 98 78 139 47 50 49 53 55 128
4 42 8 82 9 89 3 12 -2 14 -105 45 -55 16 -175 83 -150 84 22 0 3 27 -30 43
-18 9 -71 23 -118 33 -79 15 -88 15 -117 0 -35 -18 -135 -145 -156 -199 -8
-19 -14 -77 -14 -144 0 -63 -6 -120 -12 -130 -8 -13 -10 38 -8 194 3 199 2
213 -17 239 -12 15 -31 34 -43 42 l-22 14 0 -79z"/>
<path d="M6060 6203 c0 -12 8 -18 25 -19 31 -2 31 0 0 20 -23 15 -25 15 -25
-1z"/>
<path d="M6120 6165 c0 -8 6 -15 14 -15 16 0 21 -13 31 -80 6 -40 5 -43 -7
-26 -14 18 -15 18 -22 1 -4 -11 -2 -22 5 -26 8 -5 10 -40 7 -118 -4 -98 -3
-111 12 -111 14 0 16 10 13 63 l-4 62 35 -40 c20 -22 51 -76 68 -120 32 -76
33 -86 35 -225 1 -98 -6 -213 -22 -355 -13 -115 -29 -266 -34 -334 l-10 -125
162 -166 c89 -91 183 -192 207 -223 27 -35 55 -60 70 -63 14 -2 39 -9 56 -14
45 -15 54 -13 80 16 29 31 29 30 2 38 -13 3 -29 15 -36 26 -11 18 -7 31 27
104 49 103 75 126 147 126 58 0 73 10 43 28 -14 9 -19 9 -19 1 0 -8 -4 -8 -15
1 -8 7 -22 10 -30 6 -8 -3 -15 -1 -15 4 0 5 -22 19 -50 31 -49 21 -65 39 -35
39 8 0 15 -5 15 -12 0 -9 3 -9 12 0 10 10 -5 30 -68 95 -44 45 -139 145 -211
222 l-130 141 -7 235 c-11 366 -43 462 -184 553 -89 57 -98 69 -78 98 24 34
20 89 -9 128 -31 42 -55 58 -55 35z"/>
<path d="M6056 6048 c2 -62 9 -176 16 -254 14 -184 5 -537 -21 -769 -27 -239
-26 -301 9 -619 17 -148 30 -299 28 -335 l-3 -66 -125 -3 c-178 -4 -189 -9
-23 -11 124 -1 143 -3 152 -18 10 -17 10 -17 11 0 0 19 46 22 133 8 36 -6 47
-5 47 6 0 9 -17 13 -62 13 -109 0 -103 -7 -116 138 -5 70 -23 232 -38 361
l-28 234 27 266 c36 355 43 550 26 731 -7 80 -13 208 -13 284 -1 98 -5 140
-13 143 -9 3 -11 -25 -7 -109z"/>
<path d="M5960 6075 c0 -8 9 -19 20 -25 18 -10 20 -21 20 -125 0 -92 3 -115
14 -115 11 0 13 23 11 120 -2 99 -5 124 -20 140 -21 23 -45 26 -45 5z"/>
<path d="M5872 5563 c-5 -10 -15 -70 -21 -133 -7 -63 -16 -153 -22 -200 -13
-121 -13 -122 13 -118 26 3 30 23 46 246 8 109 13 135 28 146 16 13 16 15 -5
45 -26 36 -27 37 -39 14z"/>
<path d="M4386 5075 c-3 -9 -6 -26 -5 -38 1 -16 4 -12 10 12 10 34 6 55 -5 26z"/>
<path d="M4336 4910 c-9 -22 -16 -55 -15 -73 1 -24 5 -14 19 38 10 39 17 71
15 73 -1 2 -10 -15 -19 -38z"/>
<path d="M4749 4901 c-13 -11 -21 -22 -18 -25 3 -3 16 5 29 19 28 30 22 33
-11 6z"/>
<path d="M4536 4849 c-16 -24 -30 -57 -32 -82 -4 -38 -3 -39 7 -17 6 14 22 49
35 79 14 29 24 55 22 56 -2 2 -16 -15 -32 -36z"/>
<path d="M3087 4794 c7 -19 44 -34 83 -34 44 0 44 16 0 34 -54 21 -91 21 -83
0z"/>
<path d="M3541 4720 c-13 -11 -31 -20 -40 -20 -11 1 -8 5 9 15 17 10 20 14 9
15 -26 0 -42 -27 -37 -61 l5 -32 -96 8 c-143 12 -190 10 -249 -9 -62 -21 -62
-33 0 -18 51 13 165 15 306 6 65 -4 102 -3 102 3 0 12 -29 38 -50 45 -8 3 13
9 48 13 34 4 62 11 62 15 0 7 -34 40 -41 40 -2 -1 -15 -10 -28 -20z"/>
<path d="M3840 4700 c0 -5 17 -10 38 -9 33 1 34 2 12 9 -36 11 -50 11 -50 0z"/>
<path d="M4474 4686 c-4 -10 -2 -22 4 -28 8 -8 13 -7 18 6 4 10 2 22 -4 28 -8
8 -13 7 -18 -6z"/>
<path d="M3563 4669 c11 -6 37 -8 65 -4 33 4 56 2 76 -9 32 -16 65 -11 46 8
-6 6 -54 12 -108 14 -75 2 -93 0 -79 -9z"/>
<path d="M6900 4645 c0 -7 58 -35 72 -35 7 1 -3 9 -22 20 -35 19 -50 24 -50
15z"/>
<path d="M3790 4522 c0 -5 18 -17 41 -27 34 -16 38 -20 23 -26 -14 -6 -15 -8
-4 -9 8 -1 -5 -6 -30 -11 -26 -5 -68 -5 -100 0 -64 11 -171 -5 -135 -20 11 -4
37 -8 58 -8 l37 -1 0 -56 c0 -67 14 -84 69 -84 41 0 50 7 30 27 -11 11 6 99
22 117 5 6 32 10 61 11 29 0 62 6 73 12 18 10 16 12 -18 18 -20 4 -35 11 -32
15 7 12 -49 50 -74 50 -12 0 -21 -4 -21 -8z"/>
<path d="M4400 4510 c0 -19 3 -21 12 -12 9 9 9 15 0 24 -9 9 -12 7 -12 -12z"/>
<path d="M4052 4490 c-23 -17 -41 -36 -39 -42 1 -7 -7 -14 -19 -16 -15 -2 -25
-17 -38 -57 l-17 -54 -55 5 c-48 3 -55 2 -50 -12 3 -9 6 -20 6 -25 0 -5 45 -9
101 -9 l100 0 -7 -47 c-8 -59 -10 -63 -35 -63 -24 0 -25 -17 -1 -24 16 -5 17
-33 15 -412 -1 -325 -4 -409 -15 -416 -7 -5 -212 -6 -468 -2 -250 4 -452 3
-448 -1 3 -3 116 -9 250 -12 133 -3 347 -8 473 -12 127 -4 233 -5 238 -3 4 2
7 216 7 476 0 386 3 482 15 521 8 27 12 51 10 54 -3 2 -6 -2 -7 -10 0 -8 -4 6
-7 31 -5 39 -9 45 -28 42 -13 -2 -31 1 -40 7 -14 8 -5 10 39 11 44 0 59 -4 67
-17 8 -15 11 -15 26 -3 16 13 16 15 -2 21 -10 4 -36 8 -58 9 l-40 2 34 8 c34
8 51 24 51 48 0 6 5 12 10 12 6 0 10 5 10 10 0 19 -37 10 -78 -20z"/>
<path d="M4530 4503 c0 -13 5 -23 10 -23 13 0 13 11 0 30 -8 12 -10 11 -10 -7z"/>
<path d="M3333 4405 c0 -22 2 -30 4 -17 2 12 2 30 0 40 -3 9 -5 -1 -4 -23z"/>
<path d="M5101 4404 c0 -11 3 -14 6 -6 3 7 2 16 -1 19 -3 4 -6 -2 -5 -13z"/>
<path d="M4151 4368 c-17 -17 -31 -36 -31 -40 0 -5 -5 -6 -12 -2 -6 4 -8 3 -4
-4 3 -6 0 -30 -9 -54 -12 -36 -15 -121 -15 -515 l0 -472 38 -7 c20 -4 48 -13
62 -20 23 -12 20 -13 -40 -14 -46 0 -61 -3 -50 -10 8 -5 39 -10 68 -10 l52 0
0 -39 c0 -22 4 -43 10 -46 6 -4 8 10 4 38 l-6 44 38 6 c59 10 124 8 124 -3 0
-5 -19 -10 -42 -11 -39 -1 -41 -1 -17 -10 37 -14 79 4 79 34 0 32 -18 47 -49
41 -14 -3 -51 -1 -81 4 l-55 10 86 1 c74 1 88 -2 104 -19 12 -13 15 -28 11
-47 -6 -26 -3 -25 34 17 22 25 40 48 40 53 0 19 47 4 63 -21 28 -41 171 -143
262 -187 272 -130 416 -162 678 -150 89 4 187 8 217 9 l55 1 2 -70 c5 -131 24
-300 38 -321 8 -13 10 -26 4 -35 -12 -19 -11 -116 1 -124 6 -3 10 -19 10 -35
0 -47 -106 -353 -153 -444 -9 -16 -13 -35 -10 -42 4 -11 -12 -14 -78 -14 -110
0 -129 -6 -136 -41 -4 -24 -11 -29 -34 -29 -37 0 -215 35 -309 61 -41 11 -86
23 -100 26 -24 5 -24 5 -5 -9 11 -8 88 -31 172 -51 142 -35 218 -62 423 -152
47 -20 110 -44 140 -52 30 -8 127 -37 215 -65 274 -85 596 -150 750 -152 74 0
97 3 131 21 46 24 102 84 141 151 35 59 110 234 130 301 8 31 18 62 20 69 6
15 -28 16 -62 0 -24 -11 -70 -73 -95 -129 -17 -37 -55 -35 -105 6 -22 18 -51
38 -65 45 -40 20 -130 83 -130 91 0 4 -12 10 -27 14 -21 5 -24 8 -12 16 7 5
24 9 37 9 12 0 22 5 22 10 0 20 73 11 99 -12 l26 -23 -23 26 c-25 28 -72 156
-72 194 0 12 -7 28 -15 35 -10 8 -15 30 -15 61 0 26 -5 51 -11 55 -6 3 -8 17
-4 31 11 45 -6 164 -27 185 -13 13 -18 30 -16 56 3 36 2 37 -27 34 -23 -2 -27
-1 -15 7 8 6 22 11 31 11 33 0 93 261 93 405 0 112 -13 153 -78 235 -29 36
-79 99 -111 140 -33 41 -73 93 -89 115 -16 22 -54 69 -86 105 -31 36 -62 75
-68 87 -16 29 -15 90 1 96 6 2 -115 7 -270 11 -156 4 -286 5 -291 2 -4 -2 -98
-12 -208 -20 -183 -14 -285 -33 -299 -56 -3 -4 2 -13 10 -20 8 -7 15 -24 15
-39 1 -39 25 -131 47 -183 l21 -45 -174 -7 -174 -7 -127 41 c-199 65 -327 65
-348 0 -5 -15 -15 -20 -40 -20 -29 0 -34 4 -37 27 -5 43 -37 53 -180 53 l-128
0 0 39 0 39 228 6 c192 5 388 19 345 24 -7 1 -13 9 -13 17 0 8 6 15 13 15 8 0
7 4 -3 10 -11 7 -7 10 20 12 19 1 44 3 55 4 11 1 46 2 78 3 51 1 62 5 88 30
l29 29 0 167 0 167 -28 27 c-26 26 -33 28 -152 34 -69 4 -141 12 -160 17 -19
6 -56 10 -82 10 -52 0 -71 16 -43 36 17 13 17 15 2 31 -8 10 -20 30 -26 46
-10 27 -10 27 34 27 49 0 63 -11 40 -34 -14 -14 -9 -15 52 -9 44 4 72 12 80
22 10 14 13 14 33 -4 28 -25 63 -92 55 -105 -9 -14 24 -25 36 -13 13 13 -16
87 -30 79 -5 -3 -12 1 -15 10 -4 9 -2 13 5 8 7 -4 10 -1 7 7 -3 8 -12 13 -21
13 -9 -1 -14 2 -11 7 2 5 -5 10 -18 13 -46 9 -384 36 -444 36 -56 0 -65 -3
-93 -32z m214 2 c4 -6 16 -8 27 -4 28 9 38 -10 38 -78 l0 -58 -31 0 c-16 0
-28 4 -24 9 3 5 1 12 -5 16 -5 3 -10 -1 -10 -9 0 -9 -8 -16 -19 -16 -11 0 -21
-3 -24 -7 -2 -5 -2 -3 -1 4 6 23 -14 23 -21 0 l-8 -22 -4 23 c-5 25 -23 30
-23 7 0 -21 -20 -19 -21 3 -1 16 -2 16 -6 0 -6 -23 -23 -23 -23 -1 0 15 -2 14
-15 -3 -10 -14 -14 -15 -15 -4 0 11 -3 11 -12 2 -16 -16 -28 -15 -28 2 0 22
30 48 47 41 11 -3 13 -1 9 10 -4 11 3 19 19 25 22 9 24 12 13 30 -7 11 -16 20
-20 20 -5 0 -8 5 -8 10 0 13 157 13 165 0z m-175 -168 c0 -5 -20 -13 -45 -19
-36 -8 -45 -7 -45 3 0 8 16 14 43 17 23 2 43 4 45 5 1 1 2 -2 2 -6z m-35 -412
c17 -7 15 -9 -12 -9 -17 -1 -35 4 -38 9 -7 12 22 12 50 0z m1165 -324 c0 -2 3
-12 7 -22 6 -16 -2 -17 -112 -10 -123 7 -152 14 -119 27 20 8 224 12 224 5z
m-835 -74 c7 -23 19 -49 25 -57 11 -13 4 -15 -51 -13 -57 1 -59 2 -16 5 26 2
47 8 47 12 0 5 -10 7 -22 5 -31 -5 -53 14 -61 52 -7 38 -5 41 35 40 27 -1 32
-6 43 -44z m-12 -99 c-7 -2 -19 -2 -25 0 -7 3 -2 5 12 5 14 0 19 -2 13 -5z
m1974 -709 c38 -5 50 -10 46 -20 -6 -17 -54 -18 -123 -3 -99 21 -45 37 77 23z
m184 -80 c12 -15 -1 -25 -15 -11 -7 6 -10 22 -7 36 4 22 6 23 9 6 2 -11 8 -25
13 -31z m-501 3 c27 -2 32 -19 30 -102 0 -23 9 -69 20 -104 17 -55 18 -65 5
-84 -18 -29 -21 -143 -5 -180 15 -30 9 -43 -15 -34 -8 4 -15 18 -15 35 0 31
-37 92 -95 157 -30 33 -36 46 -33 77 3 30 -1 38 -17 44 -14 5 -2 9 37 11 57 4
57 4 68 41 13 50 13 105 -2 120 -7 7 -30 13 -52 13 -23 1 -54 5 -71 10 -20 5
-4 6 45 3 41 -3 86 -6 100 -7z m425 -138 c-8 -11 18 -26 43 -24 13 1 25 -2 28
-7 6 -9 -37 -28 -48 -21 -10 5 -10 -28 0 -43 4 -7 18 -14 32 -15 30 -5 53 -55
31 -68 -16 -10 -4 -34 13 -28 8 3 19 -14 29 -47 23 -73 22 -85 -10 -91 -16 -3
-40 -9 -55 -14 -24 -8 -26 -7 -15 9 6 10 15 16 21 13 5 -3 6 -1 2 6 -4 6 -11
9 -16 6 -5 -3 -12 -1 -15 5 -4 6 -16 8 -28 5 -14 -4 -17 -3 -10 2 10 7 10 23
2 68 -5 33 -13 76 -16 95 -3 19 -14 52 -24 72 -24 47 -12 85 26 85 8 0 12 -4
10 -8z m-305 -192 c0 -18 -2 -19 -10 -7 -13 20 -13 43 0 35 6 -3 10 -16 10
-28z m-194 -167 c15 -6 25 -13 22 -15 -3 -3 -22 1 -44 9 -21 8 -31 15 -22 15
9 1 29 -4 44 -9z m122 -27 c-10 -2 -28 -2 -40 0 -13 2 -5 4 17 4 22 1 32 -1
23 -4z m428 -168 c19 -14 19 -14 -2 -15 -11 0 -29 7 -40 15 -19 14 -19 14 2
15 11 0 29 -7 40 -15z m109 -104 c3 -6 -4 -15 -15 -21 -19 -10 -20 -10 -8 9
15 24 15 24 23 12z m-242 -38 c-7 -2 -21 -2 -30 0 -10 3 -4 5 12 5 17 0 24 -2
18 -5z m10 -20 c-7 -2 -21 -2 -30 0 -10 3 -4 5 12 5 17 0 24 -2 18 -5z m342
-113 c-22 -23 -38 -30 -67 -30 l-39 0 28 26 c18 16 35 24 50 21 12 -2 28 0 35
4 24 16 22 9 -7 -21z"/>
<path d="M6608 2185 c-10 -10 21 -55 38 -55 21 0 17 18 -5 25 -11 3 -21 13
-23 21 -2 9 -6 13 -10 9z"/>
<path d="M6374 4381 c-43 -26 -51 -41 -22 -42 13 0 17 -3 10 -6 -7 -3 -20 -2
-30 2 -9 4 -56 9 -104 11 -81 4 -88 2 -102 -18 -21 -30 -20 -71 2 -98 15 -19
31 -23 107 -27 66 -4 95 -10 110 -23 49 -43 79 -48 131 -24 l34 16 82 -67 c89
-73 140 -100 206 -111 42 -6 42 -7 64 -78 12 -39 23 -73 25 -75 2 -2 14 1 28
7 21 10 36 9 75 -4 41 -13 51 -22 60 -49 9 -28 14 -31 38 -27 39 7 92 49 92
74 0 21 0 21 -25 -2 -17 -16 -28 -20 -37 -13 -7 6 -41 17 -76 26 -72 18 -152
56 -160 75 -2 7 9 28 25 45 56 59 52 67 -30 67 -40 0 -83 3 -96 7 -18 4 -23 2
-19 -8 2 -8 14 -15 26 -17 12 -2 22 -8 22 -13 0 -13 -12 -11 -35 5 -11 7 -31
17 -45 21 -43 12 -212 146 -206 162 4 8 9 39 12 69 6 49 4 58 -17 81 -24 25
-76 53 -101 53 -7 0 -27 -9 -44 -19z"/>
<path d="M7011 4347 c-31 -16 -30 -28 2 -47 15 -8 45 -39 68 -68 22 -29 50
-57 60 -63 16 -8 19 -6 19 15 0 14 5 37 10 52 15 39 -3 76 -49 102 -44 25 -75
27 -110 9z"/>
<path d="M5112 4315 c0 -16 2 -22 5 -12 2 9 2 23 0 30 -3 6 -5 -1 -5 -18z"/>
<path d="M4580 4276 c0 -2 7 -6 15 -10 8 -3 15 -1 15 4 0 6 -7 10 -15 10 -8 0
-15 -2 -15 -4z"/>
<path d="M5126 4175 c8 -131 26 -275 35 -281 5 -3 9 -16 9 -30 0 -27 16 -30
44 -9 19 14 19 15 1 15 -17 0 -17 1 -2 18 22 25 21 45 -3 67 -11 10 -20 24
-20 32 0 8 -5 24 -12 36 -6 12 -11 37 -9 54 3 40 -8 61 -20 42 -6 -10 -9 -3
-9 21 -1 19 -5 53 -10 75 -7 31 -8 21 -4 -40z"/>
<path d="M6851 4225 c0 -11 6 -31 14 -45 13 -22 14 -23 14 -5 0 11 -6 31 -14
45 -13 22 -14 23 -14 5z"/>
<path d="M6793 4203 c-17 -6 -16 -35 1 -58 7 -10 11 -27 8 -37 -3 -12 1 -18
12 -18 9 0 16 8 16 20 0 11 -4 20 -9 20 -6 0 -11 17 -13 38 -2 26 -7 37 -15
35z"/>
<path d="M7235 4175 c-16 -14 -41 -25 -55 -25 -23 -1 -22 -2 9 -15 18 -8 47
-14 65 -14 30 2 30 2 4 6 -33 5 -34 7 -7 44 25 35 23 35 -16 4z"/>
<path d="M7337 4173 c-11 -13 -17 -26 -14 -29 2 -3 12 7 21 22 23 33 17 39 -7
7z"/>
<path d="M7130 4101 c0 -5 5 -13 10 -16 6 -3 10 -2 10 4 0 5 -4 13 -10 16 -5
3 -10 2 -10 -4z"/>
<path d="M5990 3940 l-85 -6 93 -2 c60 -1 91 2 87 8 -3 6 -7 9 -8 8 -1 -1 -40
-5 -87 -8z"/>
<path d="M6115 3939 c-3 -4 33 -9 80 -11 47 -2 85 0 85 5 0 4 -26 8 -57 8 -32
1 -68 3 -81 4 -12 1 -25 -1 -27 -6z"/>
<path d="M7708 3843 c-26 -28 -74 -121 -85 -165 -35 -141 -24 -215 32 -211 69
5 143 135 152 269 9 120 -39 171 -99 107z m-10 -102 c3 -16 -1 -22 -10 -19 -7
3 -14 15 -14 27 -2 28 20 21 24 -8z m23 -96 c5 4 9 -1 9 -10 0 -11 -5 -15 -15
-11 -8 3 -19 -2 -24 -12 -8 -14 -10 -13 -17 12 -4 15 -2 31 3 35 5 3 13 15 18
26 8 17 10 16 13 -13 2 -18 8 -30 13 -27z m-26 -154 c-12 -11 -24 16 -18 39
l7 25 7 -30 c5 -16 6 -31 4 -34z"/>
<path d="M4752 3695 c0 -16 2 -22 5 -12 2 9 2 23 0 30 -3 6 -5 -1 -5 -18z"/>
<path d="M4753 3605 c0 -22 2 -30 4 -17 2 12 2 30 0 40 -3 9 -5 -1 -4 -23z"/>
<path d="M7520 3507 c0 -8 7 -31 15 -51 12 -27 21 -36 40 -36 39 0 37 14 -11
59 -27 27 -44 38 -44 28z"/>
<path d="M7151 3404 c0 -11 3 -14 6 -6 3 7 2 16 -1 19 -3 4 -6 -2 -5 -13z"/>
<path d="M7172 3320 c0 -14 4 -38 8 -55 7 -27 8 -27 8 -5 0 14 -4 39 -8 55 -7
27 -8 27 -8 5z"/>
<path d="M3467 3226 c33 -43 296 -346 300 -346 6 0 -54 76 -181 228 -65 78
-123 142 -128 142 -5 0 -1 -11 9 -24z"/>
<path d="M7192 3200 c0 -19 2 -27 5 -17 2 9 2 25 0 35 -3 9 -5 1 -5 -18z"/>
<path d="M7203 3120 c0 -25 2 -35 4 -22 2 12 2 32 0 45 -2 12 -4 2 -4 -23z"/>
<path d="M4361 3086 c2 -2 65 -5 139 -8 80 -3 115 -2 85 3 -51 7 -232 12 -224
5z"/>
<path d="M4260 3070 l-25 -8 25 0 c14 0 36 4 50 8 l25 8 -25 0 c-14 0 -36 -4
-50 -8z"/>
<path d="M7213 3010 c0 -36 2 -50 4 -32 2 17 2 47 0 65 -2 17 -4 3 -4 -33z"/>
<path d="M4100 3020 c-19 -11 -30 -19 -25 -19 6 0 26 8 45 19 19 11 31 19 25
19 -5 0 -26 -8 -45 -19z"/>
<path d="M3860 2930 c-8 -5 -12 -12 -9 -15 4 -3 12 1 19 10 14 17 11 19 -10 5z"/>
<path d="M7224 2845 c0 -55 1 -76 3 -47 2 29 2 74 0 100 -2 26 -3 2 -3 -53z"/>
<path d="M3680 2926 c0 -2 8 -10 18 -17 15 -13 16 -12 3 4 -13 16 -21 21 -21
13z"/>
<path d="M3872 2907 c-32 -34 -27 -45 6 -15 15 15 38 28 52 31 22 4 21 4 -6 6
-20 1 -38 -7 -52 -22z"/>
<path d="M3780 2897 c0 -2 6 -10 14 -16 11 -9 16 -9 22 1 4 7 4 10 -1 6 -4 -4
-14 -3 -22 3 -7 6 -13 9 -13 6z"/>
<path d="M3742 2850 c7 -11 16 -20 21 -20 4 0 3 9 -3 20 -6 11 -15 20 -20 20
-6 0 -5 -9 2 -20z"/>
<path d="M3820 2860 c-9 -6 -10 -10 -3 -10 6 0 15 5 18 10 8 12 4 12 -15 0z"/>
<path d="M3780 2825 c-8 -9 -8 -15 -2 -15 12 0 26 19 19 26 -2 2 -10 -2 -17
-11z"/>
<path d="M3666 2806 c13 -21 12 -25 -7 -49 l-20 -27 40 0 c71 0 74 48 4 82
l-32 16 15 -22z"/>
<path d="M7770 2810 c0 -6 7 -13 15 -17 24 -9 27 1 5 15 -13 8 -20 8 -20 2z"/>
<path d="M7223 2580 c0 -25 2 -35 4 -22 2 12 2 32 0 45 -2 12 -4 2 -4 -23z"/>
<path d="M7614 2587 c-97 -109 -132 -199 -238 -603 -21 -80 -69 -201 -96 -244
-5 -8 -29 -53 -52 -100 -51 -102 -179 -295 -214 -322 -13 -11 -24 -26 -24 -34
0 -8 -4 -14 -10 -14 -5 0 -22 -13 -38 -28 -100 -97 -480 -82 -857 33 -44 14
-84 25 -88 25 -5 0 -23 6 -40 14 -18 8 -81 33 -142 56 -147 56 -413 194 -544
282 -132 88 -288 205 -298 222 -5 7 -21 20 -38 29 -53 28 -447 218 -526 253
-182 80 -406 152 -558 178 -125 21 -131 21 -131 -7 0 -25 -178 -278 -241 -342
-39 -40 -47 -59 -30 -69 14 -9 214 23 247 40 28 14 34 13 77 -5 44 -19 47 -22
37 -42 -7 -12 -10 -29 -7 -40 3 -10 -4 -69 -14 -131 -17 -96 -18 -124 -8 -186
22 -148 74 -256 185 -389 41 -48 77 -97 80 -109 6 -22 81 -64 124 -70 78 -10
287 -24 430 -29 334 -11 548 -24 625 -39 11 -2 54 -7 95 -11 110 -10 149 -14
210 -25 30 -5 70 -12 88 -15 41 -6 79 -13 117 -19 155 -26 381 -59 525 -75
360 -42 336 -41 850 -56 184 -6 308 -12 350 -19 14 -2 43 -7 65 -10 70 -10 98
-16 180 -36 234 -56 382 -76 635 -89 152 -7 260 1 320 26 14 6 28 10 31 9 12
-2 39 27 39 44 0 9 16 38 37 64 29 38 36 55 35 87 -2 31 8 58 43 118 122 217
138 457 43 689 -12 31 -25 59 -28 62 -3 3 -10 16 -17 30 -16 37 -74 113 -80
106 -3 -3 -15 1 -27 9 -11 8 -28 15 -37 15 -24 0 -59 47 -59 79 -1 19 -12 35
-43 57 -74 54 -191 105 -267 117 -22 3 -19 6 25 26 27 12 92 34 144 49 134 38
90 39 -65 2 -212 -51 -364 -99 -459 -145 -89 -44 -249 -144 -324 -205 -111
-87 -256 -178 -291 -182 -22 -3 -25 1 -28 33 -2 20 6 74 18 120 12 45 23 104
25 131 1 26 10 54 18 63 9 8 23 41 32 73 81 285 154 487 192 533 30 35 26 50
-3 16z m-3892 -421 c-38 -55 -59 -70 -27 -19 17 27 56 73 61 73 2 0 -14 -24
-34 -54z m398 -291 c138 -19 290 -19 364 0 70 18 74 16 109 -63 103 -230 19
-520 -178 -613 -47 -23 -74 -29 -127 -29 -103 0 -169 29 -251 111 -150 150
-197 380 -116 570 22 50 23 51 58 45 20 -4 83 -13 141 -21z m4513 -44 c-6 -9
-32 35 -33 54 0 14 5 10 18 -15 10 -19 17 -37 15 -39z m-346 18 c171 -59 316
-212 372 -392 93 -302 -58 -610 -334 -682 -318 -82 -650 187 -672 544 -8 143
33 287 110 376 l33 38 92 -182 c51 -99 97 -181 103 -181 5 0 9 -22 9 -48 0
-103 98 -192 196 -178 85 11 144 58 164 131 18 63 -7 141 -59 188 -47 43 -98
55 -160 38 -24 -6 -48 -8 -52 -4 -25 28 -100 186 -94 200 3 10 3 14 -1 10 -6
-5 -74 105 -74 119 0 5 89 35 130 44 61 12 168 3 237 -21z m377 -36 c4 -5 24
-13 44 -18 31 -9 39 -18 54 -58 10 -26 15 -47 12 -47 -3 0 -26 12 -50 26 -28
17 -43 32 -40 40 3 8 -3 18 -13 24 -10 5 -21 16 -25 25 -6 16 5 20 18 8z
m-3609 -323 c14 -23 -3 -39 -32 -31 -40 11 -44 41 -4 41 16 0 33 -5 36 -10z
m388 -72 c9 -5 17 -14 17 -19 0 -7 -8 -8 -17 -4 -10 3 -37 11 -60 18 -24 6
-43 15 -43 20 0 10 76 -1 103 -15z"/>
<path d="M4235 1781 c-51 -23 -79 -70 -79 -132 0 -133 101 -202 224 -153 83
33 110 146 56 238 -15 25 -35 50 -46 56 -30 16 -111 11 -155 -9z"/>
<path d="M4450 1285 c-7 -8 -8 -15 -2 -15 5 0 15 7 22 15 7 8 8 15 2 15 -5 0
-15 -7 -22 -15z"/>
<path d="M8160 1826 c0 -28 44 -85 56 -73 9 9 -34 97 -47 97 -5 0 -9 -11 -9
-24z"/>
<path d="M7807 1504 c-4 -4 -7 -32 -7 -61 0 -66 20 -68 34 -4 7 33 6 45 -6 57
-8 8 -17 11 -21 8z m15 -61 l-10 -38 -1 50 c-1 36 2 46 10 38 8 -8 8 -22 1
-50z"/>
<path d="M7834 1192 c14 -42 54 -104 60 -93 8 13 -26 82 -50 102 -15 13 -16
12 -10 -9z"/>
<path d="M8570 1103 c-20 -34 -21 -41 -9 -62 22 -38 35 -35 54 11 25 62 28 76
12 48 -9 -14 -20 -25 -27 -25 -6 0 -15 -7 -20 -15 -13 -20 -12 -10 2 31 6 19
16 37 22 41 8 6 8 8 -1 8 -6 0 -21 -17 -33 -37z m22 -65 c-8 -8 -9 -4 -5 13 4
13 8 18 11 10 2 -7 -1 -18 -6 -23z"/>
<path d="M8027 963 c-14 -13 -6 -24 40 -53 51 -32 69 -28 54 12 -11 31 -77 59
-94 41z"/>
<path d="M8327 926 c-10 -10 -12 -26 -8 -53 6 -37 7 -38 46 -35 80 6 88 18 49
80 -17 26 -64 30 -87 8z"/>
<path d="M3538 2353 c28 -2 76 -2 105 0 28 2 5 3 -53 3 -58 0 -81 -1 -52 -3z"/>
<path d="M5421 2214 c0 -11 3 -14 6 -6 3 7 2 16 -1 19 -3 4 -6 -2 -5 -13z"/>
<path d="M5432 2135 c0 -16 2 -22 5 -12 2 9 2 23 0 30 -3 6 -5 -1 -5 -18z"/>
<path d="M5441 2054 c0 -11 3 -14 6 -6 3 7 2 16 -1 19 -3 4 -6 -2 -5 -13z"/>
<path d="M6992 2020 c0 -14 2 -19 5 -12 2 6 2 18 0 25 -3 6 -5 1 -5 -13z"/>
<path d="M8660 1905 c0 -13 89 -100 95 -94 2 3 -18 27 -45 54 -28 27 -50 45
-50 40z"/>
</g>
</svg>
